<svg width="30" height="30" fill="none" xmlns="http://www.w3.org/2000/svg"><g clip-path="url(#prefix__clip0)"><circle cx="15" cy="15" r="15" fill="#fff"/><path d="M14.034.017a13.79 13.79 0 00-3.008.506c-1.904.526-3.408 1.272-5.112 2.538-.767.571-2.24 2.043-2.812 2.809C1.71 7.742.967 9.324.381 11.652 0 13.179-.075 15.587.205 17.359c.276 1.742.918 3.575 1.78 5.066 1.168 2.018 2.967 3.91 4.932 5.182 1.453.936 2.851 1.527 4.786 2.012 1.073.266 2.837.406 4.2.326 1.198-.065 2.04-.2 3.143-.506 1.945-.535 3.624-1.386 5.313-2.688.551-.42 2.04-1.907 2.46-2.458 1.45-1.872 2.271-3.59 2.873-5.983.38-1.526.456-3.934.175-5.707-.29-1.847-.982-3.75-1.925-5.306-.706-1.167-1.268-1.873-2.33-2.93-1.92-1.916-4.01-3.138-6.566-3.844-1.108-.305-1.945-.44-3.178-.51a53.238 53.238 0 00-1.002-.046c-.055.005-.431.03-.832.05zm5.252 3.575c2.186.33 4.1 1.952 5.373 4.556.19.385.376.79.416.9.04.11.146.391.23.622.487 1.296.848 2.953.983 4.56.096 1.112.096 1.622 0 2.543-.285 2.729-1.428 4.521-4.01 6.283-1.157.786-1.914 1.207-4.826 2.659-2.496 1.241-2.872 1.416-3.468 1.582-.482.135-1.514.185-2.11.105-2.16-.286-4.33-2.003-6.085-4.806-.446-.721-1.128-2.228-1.404-3.11-.49-1.586-.646-2.532-.646-3.879 0-3.024 1.258-5.357 4.005-7.414.666-.5 1.373-.951 2.28-1.462l.551-.305c.537-.3 2.156-1.087 3.153-1.532.511-.226 1.058-.471 1.208-.541 1.574-.716 2.992-.966 4.35-.761z" fill="#8B1FFF"/><path d="M12.28 9.706c-.096.06-1.078.632-2.18 1.263-1.103.637-2.281 1.318-2.617 1.514-.336.19-.662.39-.717.44l-.105.091.2.366c.11.205.472.832.797 1.388.326.562.953 1.644 1.389 2.401.947 1.654.957 1.664 1.097 1.644.22-.03.15-.215-.526-1.378-1.784-3.083-2.45-4.25-2.45-4.306 0-.035.6-.406 1.342-.827.737-.42 1.59-.912 1.89-1.087.306-.176.922-.537 1.378-.802.958-.552.983-.577.822-.732-.1-.1-.11-.1-.32.025zM19.858 11.666a.208.208 0 00-.06.13c0 .08.43.837 2.055 3.644.54.937 1.012 1.75 1.042 1.81.05.095.02.12-.33.325-.607.351-.868.501-1.164.662-.15.085-.41.235-.576.34-.165.1-.977.572-1.804 1.048-.827.471-1.539.892-1.579.932-.085.085-.02.236.12.261.045.01.406-.165.797-.396a2066.951 2066.951 0 003.76-2.175c.656-.376 1.212-.727 1.237-.777.035-.065-.02-.196-.23-.556-.156-.261-.722-1.238-1.258-2.176-.542-.937-1.103-1.92-1.258-2.18-.577-.997-.612-1.033-.752-.892z" fill="#8B1FFF"/></g><defs><clipPath id="prefix__clip0"><path fill="#fff" d="M0 0h30v30H0z"/></clipPath></defs></svg>